<?xml version="1.0" encoding="UTF-8" standalone="no"?>
<svg
   svg-inline=""
   role="presentation"
   focusable="false"
   data-name="Layer 1"
   viewBox="0 0 667.19 990.92"
   class="logo"
   version="1.1"
   id="svg36"
   sodipodi:docname="otago.svg"
   inkscape:version="1.1 (c68e22c387, 2021-05-23)"
   xmlns:inkscape="http://www.inkscape.org/namespaces/inkscape"
   xmlns:sodipodi="http://sodipodi.sourceforge.net/DTD/sodipodi-0.dtd"
   xmlns="http://www.w3.org/2000/svg"
   xmlns:svg="http://www.w3.org/2000/svg">
  <defs
     id="defs40" />
  <sodipodi:namedview
     id="namedview38"
     pagecolor="#ffffff"
     bordercolor="#999999"
     borderopacity="1"
     inkscape:pageshadow="0"
     inkscape:pageopacity="0"
     inkscape:pagecheckerboard="0"
     showgrid="false"
     inkscape:zoom="0.60852542"
     inkscape:cx="333.59329"
     inkscape:cy="494.63833"
     inkscape:window-width="1920"
     inkscape:window-height="1020"
     inkscape:window-x="0"
     inkscape:window-y="0"
     inkscape:window-maximized="1"
     inkscape:current-layer="svg36" />
  <path
     d="M430 333.6l-96.4-96.44-96.44 96.44L333.6 430zm-96.4-56.92l56.9 56.92-56.9 56.9-56.92-56.9z"
     id="path2"
     style="fill:#ffffff;fill-opacity:1" />
  <path
     d="M430 333.6l-96.4-96.44-96.44 96.44L333.6 430zm-96.4-56.92l56.9 56.92-56.9 56.9-56.92-56.9z"
     id="path4"
     style="fill:#ffffff;fill-opacity:1" />
  <path
     d="M588.14 333.6L333.6 79.05 79.05 333.6 333.6 588.14zm-254.54-215l215 215-215 215-215-215z"
     id="path6"
     style="fill:#ffffff;fill-opacity:1" />
  <path
     d="M588.14 333.6L333.6 79.05 79.05 333.6 333.6 588.14zm-254.54-215l215 215-215 215-215-215zM111.81 642.94v236.19h443.57V643L333.6 864.73zm27.95 208.25V710.42l140.76 140.77zm387.67-140.76v140.76H386.67z"
     id="path8"
     style="fill:#ffffff;fill-opacity:1" />
  <path
     d="M111.81 642.94v236.19h443.57V643L333.6 864.73zm27.95 208.25V710.42l140.76 140.77zm387.67-140.76v140.76H386.67z"
     id="path10"
     style="fill:#ffffff;fill-opacity:1" />
  <path
     d="M667.19 373l-333.6 333.6L0 373v617.92h667.19zm-28 590H28V440.51l305.6 305.64 305.64-305.64z"
     id="path12"
     style="fill:#ffffff;fill-opacity:1" />
  <path
     d="M667.19 373l-333.6 333.6L0 373v617.92h667.19zm-28 590H28V440.51l305.6 305.64 305.64-305.64z"
     id="path14"
     style="fill:#ffffff;fill-opacity:1" />
  <path
     d="M55.9 508v427h555.38V508L333.6 785.68zm527.43 399.1H83.85V575.46L333.6 825.21l249.73-249.74z"
     id="path16"
     style="fill:#ffffff;fill-opacity:1" />
  <path
     d="M55.9 508v427h555.38V508L333.6 785.68zm527.43 399.1H83.85V575.46L333.6 825.21l249.73-249.74z"
     id="path18"
     style="fill:#ffffff;fill-opacity:1" />
  <path
     d="M167.71 777.9v45.34h45.33l-45.33-45.34z"
     id="path20"
     style="fill:#ffffff;fill-opacity:1" />
  <path
     d="M167.71 777.9v45.34h45.33l-45.33-45.34zM499.47 823.24V777.9l-45.32 45.34h45.32z"
     id="path22"
     style="fill:#ffffff;fill-opacity:1" />
  <path
     d="M499.47 823.24V777.9l-45.32 45.34h45.32zM509.08 333.6L333.6 158.11 158.1 333.6l175.5 175.48zm-175.48-136l136 136-136 136-136-136z"
     id="path24"
     style="fill:#ffffff;fill-opacity:1" />
  <path
     d="M509.08 333.6L333.6 158.11 158.1 333.6l175.5 175.48zm-175.48-136l136 136-136 136-136-136z"
     id="path26"
     style="fill:#ffffff;fill-opacity:1" />
  <path
     d="M667.19 333.59L333.59 0 0 333.59l333.59 333.6zM333.6 39.53L627.66 333.6 333.6 627.66 39.52 333.6z"
     id="path28"
     style="fill:#ffffff;fill-opacity:1" />
  <path
     d="M667.19 333.59L333.59 0 0 333.59l333.59 333.6zM333.6 39.53L627.66 333.6 333.6 627.66 39.52 333.6z"
     id="path30"
     style="fill:#ffffff;fill-opacity:1" />
  <path
     d="M333.6 316.28l-17.43 17.43 17.43 17.42 17.42-17.42-17.42-17.43z"
     id="path32"
     style="fill:#ffffff;fill-opacity:1" />
  <path
     d="M333.6 316.28l-17.43 17.43 17.43 17.42 17.42-17.42-17.42-17.43z"
     id="path34"
     style="fill:#ffffff;fill-opacity:1" />
</svg>
